<svg xmlns="http://www.w3.org/2000/svg" width="800" height="450" viewBox="0 0 800 450" role="img" aria-label="App FCVT Estudiantes">
<defs>
<linearGradient id="bg" x1="0" y1="0" x2="1" y2="1"><stop offset="0" stop-color="#1C6BB0"/><stop offset="1" stop-color="#0F3D77"/></linearGradient>
<linearGradient id="bar" x1="0" y1="0" x2="1" y2="0"><stop offset="0" stop-color="#4A90D9"/><stop offset="1" stop-color="#1C6BB0"/></linearGradient>
</defs>
<rect width="800" height="450" fill="url(#bg)"/>
<circle cx="742" cy="46" r="150" fill="#FFFFFF" opacity="0.06"/>
<circle cx="52" cy="424" r="112" fill="#000000" opacity="0.10"/>
<g transform="translate(60,52)">
<rect x="0" y="0" width="680" height="346" rx="16" fill="#FFFFFF"/>
<path d="M0 16 A16 16 0 0 1 16 0 L664 0 A16 16 0 0 1 680 16 L680 20 L0 20 Z" fill="#F1F5FA"/>
<circle cx="20" cy="17" r="4" fill="#FF5F57"/><circle cx="33" cy="17" r="4" fill="#FEBC2E"/><circle cx="46" cy="17" r="4" fill="#28C840"/>
<rect x="250" y="8" width="180" height="12" rx="6" fill="#DDE5EF"/>
<rect x="0" y="20" width="680" height="14" fill="#F1F5FA"/>
<rect x="150" y="46" width="110" height="248" rx="20" fill="#FFFFFF" stroke="#D9E1EC" stroke-width="2"/><rect x="190" y="54" width="30" height="5" rx="2" fill="#C9D4E3"/><rect x="174" y="80" width="62" height="62" rx="16" fill="#4A90D9" opacity="0.3"/><rect x="174" y="160" width="62" height="7" rx="4" fill="#10316B" opacity="0.35"/><rect x="174" y="176" width="37" height="7" rx="4" fill="#10316B" opacity="0.35"/><rect x="170" y="212" width="70" height="24" rx="8" fill="#4A90D9"/><rect x="290" y="46" width="110" height="248" rx="20" fill="#FFFFFF" stroke="#D9E1EC" stroke-width="2"/><rect x="330" y="54" width="30" height="5" rx="2" fill="#C9D4E3"/><rect x="304" y="76" width="82" height="46" rx="10" fill="#4A90D9" opacity="0.22"/><rect x="304" y="136" width="82" height="22" rx="8" fill="#F1F5FA" stroke="#E3E9F2"/><circle cx="316" cy="147" r="6" fill="#4A90D9" opacity="0.6"/><rect x="304" y="166" width="82" height="22" rx="8" fill="#F1F5FA" stroke="#E3E9F2"/><circle cx="316" cy="177" r="6" fill="#4A90D9" opacity="0.6"/><rect x="304" y="196" width="82" height="22" rx="8" fill="#F1F5FA" stroke="#E3E9F2"/><circle cx="316" cy="207" r="6" fill="#4A90D9" opacity="0.6"/><rect x="430" y="46" width="110" height="248" rx="20" fill="#FFFFFF" stroke="#D9E1EC" stroke-width="2"/><rect x="470" y="54" width="30" height="5" rx="2" fill="#C9D4E3"/><circle cx="485" cy="104" r="24" fill="#4A90D9" opacity="0.3"/><rect x="460" y="142" width="50" height="7" rx="4" fill="#10316B" opacity="0.35"/><rect x="460" y="156" width="30" height="7" rx="4" fill="#10316B" opacity="0.35"/><rect x="444" y="180" width="82" height="18" rx="6" fill="#F1F5FA"/><rect x="444" y="206" width="82" height="18" rx="6" fill="#F1F5FA"/><rect x="444" y="232" width="82" height="18" rx="6" fill="#F1F5FA"/>
</g>
<text x="60" y="424" font-family="Segoe UI,Arial,sans-serif" font-size="19" font-weight="700" fill="#FFFFFF">App FCVT Estudiantes</text>
<text x="740" y="424" text-anchor="end" font-family="Segoe UI,Arial,sans-serif" font-size="12" font-weight="600" letter-spacing="2" fill="#4A90D9">MOVIL</text>
<rect x="0" y="0" width="800" height="6" fill="url(#bar)"/>
</svg>